<?xml version="1.0"?>
<svg version="1.1" xmlns="http://www.w3.org/2000/svg" width="400px" height="100px" style=""><path fill="#ffffff" d="M90.748,64.756c0,0.196-0.168,0.364-0.476,0.364l-2.8,0c-0.56,0-0.784-0.168-0.98-0.504l-2.632-4.284l-0.028,0l-2.688,4.228c-0.252,0.392-0.532,0.56-1.064,0.56l-2.436,0c-0.224,0-0.308-0.14-0.308-0.336c0-0.112,0.056-0.252,0.14-0.364l4.76-6.328l-4.144-5.936c-0.056-0.084-0.084-0.168-0.084-0.252c0-0.196,0.14-0.364,0.392-0.364l2.856,0c0.42,0,0.7,0.168,0.868,0.448l2.212,3.528l0.028,0l2.296-3.5c0.224-0.336,0.448-0.476,0.812-0.476l2.492,0c0.252,0,0.364,0.14,0.364,0.308c0,0.112-0.028,0.196-0.112,0.28l-4.284,5.572l4.676,6.664c0.084,0.14,0.14,0.28,0.14,0.392z M106.526,64.756c0,0.196-0.168,0.364-0.476,0.364l-2.8,0c-0.56,0-0.784-0.168-0.98-0.504l-2.632-4.284l-0.028,0l-2.688,4.228c-0.252,0.392-0.532,0.56-1.064,0.56l-2.436,0c-0.224,0-0.308-0.14-0.308-0.336c0-0.112,0.056-0.252,0.14-0.364l4.76-6.328l-4.144-5.936c-0.056-0.084-0.084-0.168-0.084-0.252c0-0.196,0.14-0.364,0.392-0.364l2.856,0c0.42,0,0.7,0.168,0.868,0.448l2.212,3.528l0.028,0l2.296-3.5c0.224-0.336,0.448-0.476,0.812-0.476l2.492,0c0.252,0,0.364,0.14,0.364,0.308c0,0.112-0.028,0.196-0.112,0.28l-4.284,5.572l4.676,6.664c0.084,0.14,0.14,0.28,0.14,0.392z M125.692,64.42c0,0.504-0.196,0.7-0.672,0.7l-2.212,0c-0.504,0-0.728-0.196-0.728-0.7l0-7.812l-7.952,0l0,7.812c0,0.504-0.224,0.7-0.7,0.7l-2.184,0c-0.504,0-0.756-0.196-0.756-0.7l0-18.004c0-0.476,0.308-0.672,0.756-0.672l2.184,0c0.448,0,0.7,0.168,0.7,0.672l0,7.308l7.952,0l0-7.308c0-0.476,0.28-0.672,0.728-0.672l2.212,0c0.448,0,0.672,0.168,0.672,0.672l0,18.004z M145.39,64.784c0,0.224-0.168,0.336-0.42,0.336l-2.548,0c-0.504,0-0.84-0.14-1.092-0.56l-4.032-6.58l-2.156,0l0,6.44c0,0.42-0.168,0.7-0.644,0.7l-2.296,0c-0.476,0-0.672-0.224-0.672-0.7l0-17.864c0-0.616,0.14-0.812,0.756-0.812l4.144,0c2.436,0,5.012,0.364,6.496,2.072c0.896,1.036,1.344,2.408,1.344,3.92c0,2.576-1.372,4.592-3.612,5.572l4.592,7.084c0.084,0.14,0.14,0.28,0.14,0.392z M140.602,51.792c0-2.436-1.624-3.304-4.06-3.304l-1.4,0l0,6.776l1.736,0c2.24,0,3.724-1.204,3.724-3.472z M165.928,56.524c0,5.768-2.716,8.932-8.176,8.932c-5.908,0-8.064-3.248-8.064-8.988l0-10.052c0-0.476,0.28-0.672,0.728-0.672l2.212,0c0.476,0,0.672,0.196,0.672,0.672l0,9.744c0,4.116,1.064,6.244,4.592,6.244c3.388,0,4.452-2.24,4.452-6.244l0-9.744c0-0.476,0.252-0.672,0.7-0.672l2.212,0c0.476,0,0.672,0.196,0.672,0.672l0,10.108z M183.554,59.464c0,3.892-3.164,5.992-6.804,5.992c-1.68,0-3.668-0.308-5.348-0.896c-0.364-0.14-0.476-0.308-0.476-0.532c0-0.112,0-0.224,0.056-0.364l0.588-1.82c0.084-0.28,0.224-0.448,0.504-0.448c0.112,0,0.252,0.028,0.42,0.084c1.316,0.476,2.772,0.84,4.172,0.84c1.512,0,3.22-0.728,3.22-2.492c0-1.288-0.952-1.988-2.044-2.52l-3.64-1.82c-1.988-0.98-3.304-2.632-3.304-4.816c0-3.416,3.36-5.292,6.468-5.292c1.848,0,3.388,0.28,5.012,0.98c0.364,0.168,0.56,0.336,0.56,0.56c0,0.112-0.028,0.224-0.084,0.364l-0.672,1.708c-0.112,0.308-0.28,0.42-0.476,0.42c-0.14,0-0.28-0.056-0.448-0.112c-1.148-0.476-2.576-0.868-3.696-0.868c-1.316,0-2.828,0.56-2.828,2.128c0,1.148,1.064,1.82,1.988,2.268l3.108,1.512c2.212,1.064,3.724,2.548,3.724,5.124z M203.476,64.42c0,0.504-0.196,0.7-0.672,0.7l-2.212,0c-0.504,0-0.728-0.196-0.728-0.7l0-7.812l-7.952,0l0,7.812c0,0.504-0.224,0.7-0.7,0.7l-2.184,0c-0.504,0-0.756-0.196-0.756-0.7l0-18.004c0-0.476,0.308-0.672,0.756-0.672l2.184,0c0.448,0,0.7,0.168,0.7,0.672l0,7.308l7.952,0l0-7.308c0-0.476,0.28-0.672,0.728-0.672l2.212,0c0.448,0,0.672,0.168,0.672,0.672l0,18.004z M216.846,47.508c0,0.448-0.196,0.588-0.588,0.588l-1.596,0l0,14.672l1.512,0c0.392,0,0.588,0.252,0.588,0.588l0,1.204c0,0.336-0.14,0.56-0.504,0.56l-6.664,0c-0.364,0-0.56-0.224-0.56-0.532l0-1.26c0-0.392,0.168-0.56,0.56-0.56l1.484,0l0-14.672l-1.624,0c-0.392,0-0.56-0.196-0.56-0.56l0-1.232c0-0.308,0.168-0.56,0.504-0.56l6.86,0c0.392,0,0.588,0.252,0.588,0.532l0,1.232z M236.544,64.756c0,0.224-0.168,0.364-0.448,0.364l-2.8,0c-0.672,0-0.98-0.224-1.344-0.7l-6.048-7.756l-0.056,0l0,7.756c0,0.504-0.196,0.7-0.672,0.7l-2.24,0c-0.504,0-0.7-0.196-0.7-0.7l0-18.004c0-0.476,0.252-0.672,0.7-0.672l2.24,0c0.448,0,0.672,0.168,0.672,0.672l0,7.924l0.056,0l5.768-8.092c0.252-0.336,0.588-0.504,1.036-0.504l2.24,0c0.28,0,0.448,0.168,0.448,0.364c0,0.112-0.028,0.224-0.112,0.336l-6.44,8.652l7.448,9.156c0.14,0.168,0.252,0.364,0.252,0.504z M252.406,64.448c0,0.448-0.196,0.672-0.672,0.672l-10.388,0c-0.56,0-0.756-0.14-0.756-0.756l0-17.92c0-0.448,0.196-0.7,0.644-0.7l10.556,0c0.448,0,0.588,0.168,0.588,0.476l0,0.168l-0.196,1.68c-0.056,0.504-0.364,0.588-0.952,0.588l-7.028,0l0,5.068l6.468,0c0.532,0,0.7,0.224,0.7,0.616l0,1.596c0,0.476-0.196,0.672-0.672,0.672l-6.496,0l0,5.6l7.504,0c0.476,0,0.7,0.196,0.7,0.644l0,1.596z M269.276,59.464c0,3.892-3.164,5.992-6.804,5.992c-1.68,0-3.668-0.308-5.348-0.896c-0.364-0.14-0.476-0.308-0.476-0.532c0-0.112,0-0.224,0.056-0.364l0.588-1.82c0.084-0.28,0.224-0.448,0.504-0.448c0.112,0,0.252,0.028,0.42,0.084c1.316,0.476,2.772,0.84,4.172,0.84c1.512,0,3.22-0.728,3.22-2.492c0-1.288-0.952-1.988-2.044-2.52l-3.64-1.82c-1.988-0.98-3.304-2.632-3.304-4.816c0-3.416,3.36-5.292,6.468-5.292c1.848,0,3.388,0.28,5.012,0.98c0.364,0.168,0.56,0.336,0.56,0.56c0,0.112-0.028,0.224-0.084,0.364l-0.672,1.708c-0.112,0.308-0.28,0.42-0.476,0.42c-0.14,0-0.28-0.056-0.448-0.112c-1.148-0.476-2.576-0.868-3.696-0.868c-1.316,0-2.828,0.56-2.828,2.128c0,1.148,1.064,1.82,1.988,2.268l3.108,1.512c2.212,1.064,3.724,2.548,3.724,5.124z M289.198,64.42c0,0.504-0.196,0.7-0.672,0.7l-2.212,0c-0.504,0-0.728-0.196-0.728-0.7l0-7.812l-7.952,0l0,7.812c0,0.504-0.224,0.7-0.7,0.7l-2.184,0c-0.504,0-0.756-0.196-0.756-0.7l0-18.004c0-0.476,0.308-0.672,0.756-0.672l2.184,0c0.448,0,0.7,0.168,0.7,0.672l0,7.308l7.952,0l0-7.308c0-0.476,0.28-0.672,0.728-0.672l2.212,0c0.448,0,0.672,0.168,0.672,0.672l0,18.004z M306.74,64.756c0,0.196-0.168,0.364-0.476,0.364l-2.8,0c-0.56,0-0.784-0.168-0.98-0.504l-2.632-4.284l-0.028,0l-2.688,4.228c-0.252,0.392-0.532,0.56-1.064,0.56l-2.436,0c-0.224,0-0.308-0.14-0.308-0.336c0-0.112,0.056-0.252,0.14-0.364l4.76-6.328l-4.144-5.936c-0.056-0.084-0.084-0.168-0.084-0.252c0-0.196,0.14-0.364,0.392-0.364l2.856,0c0.42,0,0.7,0.168,0.868,0.448l2.212,3.528l0.028,0l2.296-3.5c0.224-0.336,0.448-0.476,0.812-0.476l2.492,0c0.252,0,0.364,0.14,0.364,0.308c0,0.112-0.028,0.196-0.112,0.28l-4.284,5.572l4.676,6.664c0.084,0.14,0.14,0.28,0.14,0.392z M322.518,64.756c0,0.196-0.168,0.364-0.476,0.364l-2.8,0c-0.56,0-0.784-0.168-0.98-0.504l-2.632-4.284l-0.028,0l-2.688,4.228c-0.252,0.392-0.532,0.56-1.064,0.56l-2.436,0c-0.224,0-0.308-0.14-0.308-0.336c0-0.112,0.056-0.252,0.14-0.364l4.76-6.328l-4.144-5.936c-0.056-0.084-0.084-0.168-0.084-0.252c0-0.196,0.14-0.364,0.392-0.364l2.856,0c0.42,0,0.7,0.168,0.868,0.448l2.212,3.528l0.028,0l2.296-3.5c0.224-0.336,0.448-0.476,0.812-0.476l2.492,0c0.252,0,0.364,0.14,0.364,0.308c0,0.112-0.028,0.196-0.112,0.28l-4.284,5.572l4.676,6.664c0.084,0.14,0.14,0.28,0.14,0.392z"/><path fill="#" d=""/></svg>
